<svg xmlns="http://www.w3.org/2000/svg" viewBox="0 0 180 48" fill="#ffffff">
  <!-- H left stroke: 2-col checkerboard -->
  <rect x="0" y="0" width="3.5" height="3.5"/>
  <rect x="7" y="0" width="3.5" height="3.5"/>
  <rect x="3.5" y="3.5" width="3.5" height="3.5"/>
  <rect x="0" y="7" width="3.5" height="3.5"/>
  <rect x="7" y="7" width="3.5" height="3.5"/>
  <rect x="3.5" y="10.5" width="3.5" height="3.5"/>
  <rect x="0" y="14" width="3.5" height="3.5"/>
  <rect x="7" y="14" width="3.5" height="3.5"/>
  <rect x="3.5" y="17.5" width="3.5" height="3.5"/>
  <rect x="0" y="21" width="3.5" height="3.5"/>
  <rect x="7" y="21" width="3.5" height="3.5"/>
  <rect x="3.5" y="24.5" width="3.5" height="3.5"/>
  <rect x="0" y="28" width="3.5" height="3.5"/>
  <rect x="7" y="28" width="3.5" height="3.5"/>
  <rect x="3.5" y="31.5" width="3.5" height="3.5"/>
  <rect x="0" y="35" width="3.5" height="3.5"/>
  <rect x="7" y="35" width="3.5" height="3.5"/>
  <rect x="3.5" y="38.5" width="3.5" height="3.5"/>
  <rect x="0" y="42" width="3.5" height="3.5"/>
  <rect x="7" y="42" width="3.5" height="3.5"/>
  <!-- H right stroke -->
  <rect x="18" y="0" width="7" height="48"/>
  <!-- H crossbar -->
  <rect x="0" y="20" width="25" height="7"/>
  <!-- eynow -->
  <text x="30" y="41" font-family="'Arial Black',Arial,Helvetica,sans-serif" font-size="42" font-weight="900" letter-spacing="-1" fill="#ffffff">eynow</text>
</svg>
